<svg xmlns="http://www.w3.org/2000/svg" width="209.156" height="85.51" viewBox="0 0 209.156 85.51">
  <g id="Group_61" data-name="Group 61" transform="translate(-895 -749)">
    <g id="Group_60" data-name="Group 60" transform="translate(533.307 686.01)">
      <g id="Group_59" data-name="Group 59">
        <path id="Path_31" data-name="Path 31" d="M455.856,91.053c0,12.384-6.259,22.332-19.895,22.332a31.818,31.818,0,0,1-7.443-.858l-2.7,15.393-8.384,1.144,8.584-51.252,6.66-.579.125,3.807a14.937,14.937,0,0,1,10.409-4.282C451.309,76.758,455.856,82.753,455.856,91.053Zm-8.038.921c0-5.2-2.569-8.432-7.312-8.432a11.237,11.237,0,0,0-8.1,4.151l-2.766,17.721a18.457,18.457,0,0,0,6.522,1.185C444.129,106.6,447.818,100.144,447.818,91.974Z"/>
        <path id="Path_32" data-name="Path 32" d="M490.319,91.316l-3.358,21.08h-6.786v-2.635A15.486,15.486,0,0,1,469.7,113.45c-6.719,0-10.869-3.558-10.869-9.684,0-6.982,5.468-11.594,14.163-11.594a30.681,30.681,0,0,1,9.025,1.121l.394-2.5c.792-4.874-1.316-7.312-6.982-7.312a27.232,27.232,0,0,0-10.671,2.108l.987-6.786a34.961,34.961,0,0,1,11.661-2.041C487.422,76.758,491.769,81.83,490.319,91.316Zm-18.247,15.941a11.732,11.732,0,0,0,8.169-3.293l.857-5.2a24.8,24.8,0,0,0-6.983-.989c-4.48,0-7.049,1.648-7.049,5.27C467.066,106.072,469.043,107.257,472.072,107.257Z"/>
        <path id="Path_33" data-name="Path 33" d="M534.005,62.99l-7.84,49.406h-6.784l.066-3.162a13.867,13.867,0,0,1-10.211,4.151c-8.1,0-13.043-5.007-13.043-14.889,0-13.767,8.432-21.738,19.828-21.738a20.044,20.044,0,0,1,7.642,1.185l2.371-14.953Zm-14.229,39.393,2.833-17.522a17.162,17.162,0,0,0-6.851-1.319c-6.588,0-11.4,5.337-11.4,14.625,0,5.534,3.031,8.432,7.116,8.432A10.455,10.455,0,0,0,519.776,102.383Z"/>
        <path id="Path_34" data-name="Path 34" d="M535.86,98.5c-.329-13.042,7.641-21.738,19.3-21.738,9.75,0,15.481,6.126,15.679,14.822.329,13.042-7.443,21.87-19.368,21.87C541.722,113.45,536.058,107.192,535.86,98.5ZM562.8,92.9c0-5.862-3.1-9.355-8.432-9.355-5.928,0-10.473,5.4-10.473,13.769,0,5.8,3.03,9.288,8.432,9.288C558.388,106.6,562.8,101.2,562.8,92.9Z"/>
      </g>
      <path id="Path_35" data-name="Path 35" d="M380.338,75.07l-1.912,12.318,19.849-1.8-1.12,6.916-19.848,1.8-2.012,14.54,23.08-1.884-1.494,8.487L365.6,118.393l7.623-50.306,30.125-1.8-1.12,6.984Z"/>
      <path id="Path_36" data-name="Path 36" d="M412.053,62.99h7.97l-10.247,66.836-7.972,1.143Z"/>
      <path id="Path_37" data-name="Path 37" d="M400.661,135.161l66.5-10.957-5.431,12.576,100.9-18.865L448.3,148.5l6-14.006L398.565,145.07Z" fill="#009ee2"/>
      <path id="Path_38" data-name="Path 38" d="M395.907,131.616l-34.214,4.593,2.1-9.909,33.728-4.383" fill="#d3d2d2"/>
    </g>
  </g>
</svg>
