<svg id="Group_39" data-name="Group 39" xmlns="http://www.w3.org/2000/svg" width="233.344" height="39.554" viewBox="0 0 233.344 39.554">
  <g id="Group_10" data-name="Group 10" transform="translate(60.974 4.956)">
    <g id="Group_9" data-name="Group 9" transform="translate(0 0)">
      <path id="Path_5" data-name="Path 5" d="M-9.852-14.17c4.834,0,7.673-2.617,7.673-6.608,0-4.036-2.883-6.7-7.673-6.7h-4.835V-14.17Zm-8.739-16.588h8.828c7.272,0,11.486,4.481,11.486,9.935,0,5.5-4.215,9.935-11.486,9.935h-4.924V.288h-3.9Z" transform="translate(18.592 30.758)" fill="#fff"/>
    </g>
  </g>
  <g id="Group_12" data-name="Group 12" transform="translate(209.573 4.956)">
    <g id="Group_11" data-name="Group 11" transform="translate(0 0)">
      <path id="Path_6" data-name="Path 6" d="M-11.2-55.226h-9.935v-3.46H2.635v3.46H-7.3V-27.64h-3.9Z" transform="translate(21.137 58.686)" fill="#fff"/>
    </g>
  </g>
  <g id="Group_14" data-name="Group 14" transform="translate(101.455 4.956)">
    <g id="Group_13" data-name="Group 13" transform="translate(0 0)">
      <path id="Path_7" data-name="Path 7" d="M-4.4,20.229v-.008h-.007V-3.895H-4.4v0H11.345v-3.46H-8.3V23.687H11.789V20.229Z" transform="translate(8.303 7.358)" fill="#fff"/>
    </g>
  </g>
  <g id="Group_16" data-name="Group 16" transform="translate(108.317 19.371)">
    <g id="Group_15" data-name="Group 15" transform="translate(11.011 3.459) rotate(180)">
      <rect id="Rectangle_7" data-name="Rectangle 7" width="11.011" height="3.459" transform="translate(0)" fill="#fff"/>
    </g>
  </g>
  <g id="Group_18" data-name="Group 18" transform="translate(156.191 4.956)">
    <g id="Group_17" data-name="Group 17" transform="translate(0 0)">
      <path id="Path_8" data-name="Path 8" d="M-4.4,20.229v-.008h-.007V-3.895H-4.4v0H11.345v-3.46H-8.3V23.687H11.789V20.229Z" transform="translate(8.303 7.358)" fill="#fff"/>
    </g>
  </g>
  <g id="Group_20" data-name="Group 20" transform="translate(163.053 19.371)">
    <g id="Group_19" data-name="Group 19" transform="translate(11.012 3.459) rotate(180)">
      <rect id="Rectangle_8" data-name="Rectangle 8" width="11.012" height="3.459" transform="translate(0)" fill="#fff"/>
    </g>
  </g>
  <g id="Group_22" data-name="Group 22" transform="translate(180.84 4.069)">
    <g id="Group_21" data-name="Group 21" transform="translate(0 0)">
      <path id="Path_9" data-name="Path 9" d="M-4.4-39.267v-.014l.833.945L16.186-16.217h.082V-48.151h-3.9v22.31L-7.9-49.037h-.4v5.4Z" transform="translate(8.303 49.037)" fill="#fff"/>
    </g>
  </g>
  <g id="Group_24" data-name="Group 24" transform="translate(180.84 13.278)">
    <g id="Group_23" data-name="Group 23" transform="translate(3.903 0) rotate(90)">
      <path id="Path_10" data-name="Path 10" d="M0,3.9H22.724V0H6.754Z" transform="translate(0 0)" fill="#fff"/>
    </g>
  </g>
  <g id="Group_26" data-name="Group 26" transform="translate(124.57 3.551)">
    <g id="Group_25" data-name="Group 25" transform="matrix(-0.371, -0.929, 0.929, -0.371, 10.448, 27.596)">
      <path id="Path_11" data-name="Path 11" d="M5.35,3.791H26.686L28.2,0,0,.663Z" transform="translate(0 0)" fill="#fff"/>
    </g>
  </g>
  <g id="Group_28" data-name="Group 28" transform="translate(136.74 4.956)">
    <g id="Group_27" data-name="Group 27" transform="translate(0 0)">
      <path id="Path_12" data-name="Path 12" d="M-12.781-67.936l-9.713,24.349-.037-.093-1.586,4.285L-22.671-36h.354L-8.7-67.936Z" transform="translate(24.118 67.936)" fill="#fff"/>
    </g>
  </g>
  <g id="Group_30" data-name="Group 30" transform="translate(0 4.943)">
    <g id="Group_29" data-name="Group 29" transform="translate(0 0)">
      <path id="Path_13" data-name="Path 13" d="M-12.338-66.077H-23.281v3.46h9.94v27.6h3.9V-59.375Z" transform="translate(23.281 66.077)" fill="#fff"/>
    </g>
  </g>
  <g id="Group_32" data-name="Group 32" transform="translate(14.165 2.583)">
    <g id="Group_31" data-name="Group 31" transform="translate(9 0) rotate(75.309)">
      <path id="Path_14" data-name="Path 14" d="M0,9.3H3.577L5.786.878,2.439,0Z" transform="translate(0 0)" fill="#fff"/>
    </g>
  </g>
  <g id="Group_34" data-name="Group 34" transform="translate(28.645 24.299)">
    <g id="Group_33" data-name="Group 33" transform="translate(0 0)">
      <path id="Path_15" data-name="Path 15" d="M-21.963-32.453l-7.96,10.544-7.962-10.544h-3.558L-29.924-17.2-18.4-32.453Z" transform="translate(41.444 32.453)" fill="#fff"/>
    </g>
  </g>
  <g id="Group_36" data-name="Group 36" transform="translate(22.021 0)">
    <g id="Group_35" data-name="Group 35" transform="matrix(-0.534, -0.845, 0.845, -0.534, 6.392, 21.581)">
      <path id="Path_16" data-name="Path 16" d="M8.647,21.464h3.318L1.764,0,0,2.791Z" transform="translate(0 0)" fill="#fff"/>
    </g>
  </g>
  <g id="Group_38" data-name="Group 38" transform="translate(36.765 4.874)">
    <g id="Group_37" data-name="Group 37" transform="translate(0 0)">
      <path id="Path_17" data-name="Path 17" d="M-18.143,15.216-27.686,0l-6.548,9.063h3.405l2.908-3.973L-21.5,15.216Z" transform="translate(34.235)" fill="#fff"/>
    </g>
  </g>
</svg>
