<svg id="logo_mejna_new_logotyp_onblack" xmlns="http://www.w3.org/2000/svg" width="78.393" height="40.588" viewBox="0 0 78.393 40.588">
  <g id="Group_13" data-name="Group 13" transform="translate(0 0)">
    <g id="path8390">
      <path id="Path_9" data-name="Path 9" d="M-218.076,36.572h-4.068V2.657L-211.017,16.3l5.086-5.317h2.363V36.326h-3.907V17.845l.165-.7-.176.2-3.977,3.464-6.576-7.706-.435-.44a7.8,7.8,0,0,1,.4.754Z" transform="translate(222.144 -2.657)" fill-rule="evenodd"/>
    </g>
  </g>
  <g id="Group_14" data-name="Group 14" transform="translate(23.267 8.356)">
    <g id="path8392" transform="translate(0 0)">
      <path id="Path_10" data-name="Path 10" d="M-156.251,30.464h-10.586V55.752h11.747V52.574h-8.31V40.18h3.893l2.606-2.417h-6.5V33.193h7.149Z" transform="translate(166.837 -30.464)" fill-rule="evenodd"/>
    </g>
  </g>
  <g id="Group_15" data-name="Group 15" transform="translate(13.314 8.264)">
    <g id="path8394" transform="translate(0 0)">
      <path id="Path_11" data-name="Path 11" d="M-165.787,30.252V59.323l-22.317-.068-3.057,3.161,3.318.016,25.647.053V30.16Z" transform="translate(191.16 -30.16)" fill-rule="evenodd"/>
    </g>
  </g>
  <g id="Group_16" data-name="Group 16" transform="translate(63.415 4.797)">
    <g id="path8398" transform="translate(0 0)">
      <path id="Path_12" data-name="Path 12" d="M-34.122,21.5l-7.34,29.115h14.681Zm-3.316,26.1,3.316-17.112,3.31,17.112Z" transform="translate(41.462 -21.505)" fill-rule="evenodd"/>
    </g>
  </g>
  <g id="Group_17" data-name="Group 17" transform="translate(63.081 4.797)">
    <g id="path83981" transform="translate(0 0)">
      <path id="Path_13" data-name="Path 13" d="M-34.9,21.5-42.573,50.62h15.311Zm-3.316,26.1L-34.9,30.49l3.31,17.112Z" transform="translate(42.573 -21.505)" fill-rule="evenodd"/>
    </g>
  </g>
  <g id="Group_18" data-name="Group 18" transform="translate(37.642 0.693)">
    <g id="rect8400" transform="translate(0 0)">
      <rect id="Rectangle_3" data-name="Rectangle 3" width="4.103" height="4.102" transform="translate(2.901) rotate(45)"/>
    </g>
  </g>
  <g id="Group_19" data-name="Group 19" transform="translate(46.346 7.469)">
    <g id="path8396" transform="translate(0 0)">
      <path id="Path_14" data-name="Path 14" d="M3606.37,1831.357v26.43h-3.257V1836.33l-7.6,6.07v15.207h-3.3V1832.5h3.3v5.535l8.543-6.677Z" transform="translate(-3592.214 -1831.357)" fill-rule="evenodd"/>
    </g>
  </g>
</svg>
