<svg xmlns="http://www.w3.org/2000/svg" width="169.298" height="95.515" viewBox="0 0 169.298 95.515">
  <g id="Group_64" data-name="Group 64" transform="translate(-1323 -1168)">
    <g id="Layer_2" data-name="Layer 2" transform="translate(1323 1168)">
      <g id="Layer_1-2" data-name="Layer 1-2" transform="translate(0 0)">
        <g id="Group_62" data-name="Group 62" transform="translate(115.379 79.954)">
          <path id="Path_40" data-name="Path 40" d="M66.915,36.128v.933h-1.4l-3.969,9.8h-1.4l-1.866-9.336-3.969,9.336h-1.4l-2.1-9.8h-1.4v-.933h3.969v.933h-1.4L53.61,45.7l3.966-9.336h1.167L60.612,45.7l3.735-8.637h-1.4v-.933Z" transform="translate(-49.407 -31.694)" fill="#eb6aa4"/>
          <path id="Path_41" data-name="Path 41" d="M58.185,41.863v.468a3.5,3.5,0,0,0,3,3.936,3.563,3.563,0,0,0,.5.033,3.975,3.975,0,0,0,3.27-1.635h.933A5.371,5.371,0,0,1,61.454,47a4.432,4.432,0,0,1-4.441-4.43c0-.08,0-.159,0-.239a5.6,5.6,0,0,1,4.855-6.261c.171-.021.341-.035.515-.042,3.033,0,4.2,2.334,3.735,5.835Zm0-.933h7c.234-1.866-.465-3.966-2.8-3.966A4.436,4.436,0,0,0,58.185,40.93Z" transform="translate(-39.278 -31.828)" fill="#eb6aa4"/>
          <path id="Path_42" data-name="Path 42" d="M70.086,37.211v2.334h-.933V37.679a5.585,5.585,0,0,0-2.568-.7c-1.869,0-2.8.933-2.8,2.1s6.069,1.167,6.069,5.134-1.635,3.036-4.2,3.036a5.135,5.135,0,0,1-3.969-1.4v-2.1h.933V45.38a4.448,4.448,0,0,0,2.8.935c1.866,0,3.033-.7,3.033-2.1s-6.069-1.632-6.069-5.134,1.4-3.036,3.969-3.036A4.913,4.913,0,0,1,70.086,37.211Z" transform="translate(-32.973 -31.844)" fill="#eb6aa4"/>
          <path id="Path_43" data-name="Path 43" d="M67.265,42v.468a3.5,3.5,0,0,0,3,3.936,3.563,3.563,0,0,0,.5.033,3.975,3.975,0,0,0,3.27-1.635h.933A4.669,4.669,0,0,1,66.1,42.23a5.835,5.835,0,0,1,5.346-6.286c.084-.007.171-.012.257-.014,2.8,0,4.2,2.334,3.733,5.835Zm.234-.933h7c0-1.866-.465-3.966-3.033-3.966S67.966,38.728,67.5,41.063Z" transform="translate(-27.118 -31.96)" fill="#eb6aa4"/>
          <path id="Path_44" data-name="Path 44" d="M75,34.466l-1.635,14H75V49.4H70.565V48.47H72.2l1.635-13.539H72.2v-.7h2.334C74.768,34.232,75,34.232,75,34.466Z" transform="translate(-21.082 -34.232)" fill="#eb6aa4"/>
        </g>
        <path id="Path_45" data-name="Path 45" d="M21.465,21.814a9.564,9.564,0,0,1,3.969-7.935,9.788,9.788,0,0,1,6.3-2.1,8.636,8.636,0,0,1,8.871,8.4c0,.157,0,.316,0,.472a9.809,9.809,0,0,1-3.735,7.7,10.525,10.525,0,0,1-6.537,2.334,8.639,8.639,0,0,1-8.868-8.4C21.46,22.13,21.46,21.973,21.465,21.814Zm14,4.9a7.236,7.236,0,0,0,2.8-6.069,6.536,6.536,0,0,0-6.3-6.764c-.08,0-.159,0-.239,0a7.245,7.245,0,0,0-4.9,1.632A7.71,7.71,0,0,0,23.8,21.581a6.771,6.771,0,0,0,6.532,7c.077,0,.157,0,.236,0A7.937,7.937,0,0,0,35.469,26.716Z" transform="translate(28.56 15.659)" fill="#1d1d1b"/>
        <path id="Path_46" data-name="Path 46" d="M46.586,20.358a7.7,7.7,0,0,1-7.463,7.935l-.007,0a6.543,6.543,0,0,1-5.37-3.036l-1.167,7a.931.931,0,0,1-.933.933h-.7c-.468,0-.7-.465-.7-.933l3.036-16.338c0-.234,0-.468-.468-.468h-.465c-.7.234-.935,0-.935-.465h0c0-.468,0-.933.468-.933a2.332,2.332,0,0,1,1.635-.468,1.633,1.633,0,0,1,1.913,1.293,1.6,1.6,0,0,1-.047.807,6.774,6.774,0,0,1,4.9-2.1A6.3,6.3,0,0,1,46.6,19.874C46.6,20.036,46.6,20.2,46.586,20.358Zm-2.334,0a4.435,4.435,0,0,0-3.943-4.876c-.164-.016-.327-.026-.493-.026a5.6,5.6,0,0,0-5.367,5.826v.009a4.436,4.436,0,0,0,3.943,4.879,4.316,4.316,0,0,0,.491.023,5.367,5.367,0,0,0,5.388-5.346A4.878,4.878,0,0,0,44.252,20.358Z" transform="translate(40.319 18.048)" fill="#1d1d1b"/>
        <path id="Path_47" data-name="Path 47" d="M48,14.624v.468a.935.935,0,0,1-.933.465H45.9a2.8,2.8,0,0,0-2.8,1.869,5.148,5.148,0,0,0-1.167,3.033l-1.167,6.768c0,.468-.465.7-.933.7h-.7a.7.7,0,0,1-.7-.7l2.1-11.2c0-.234,0-.468-.232-.468h-.7c-.465.234-.7,0-.933-.465h0c0-.468,0-.935.468-.935a2.325,2.325,0,0,1,1.632-.465,1.632,1.632,0,0,1,1.915,1.293,1.656,1.656,0,0,1-.047.807,3.954,3.954,0,0,1,1.4-1.4,4.675,4.675,0,0,1,2.568-.7H48S48.467,13.924,48,14.624Z" transform="translate(51.275 18.182)" fill="#1d1d1b"/>
        <path id="Path_48" data-name="Path 48" d="M55.635,25.85c0,.234,0,.465.468.465h.465c.468-.232.7,0,.935.234h0a.935.935,0,0,1-.468,1.167l-1.635.468c-1.167,0-1.866-.7-1.866-2.1a7.716,7.716,0,0,1-4.9,2.1,6.536,6.536,0,0,1-6.315-6.75c0-.084.007-.168.012-.253a7.7,7.7,0,0,1,7.7-7.7,5.372,5.372,0,0,1,5.136,3.036l.465-1.869c0-.465.468-.7.933-.7h.468a.7.7,0,0,1,.7.7Zm-1.167-5.37A4.434,4.434,0,0,0,50.525,15.6c-.164-.016-.327-.026-.491-.026a5.369,5.369,0,0,0-5.388,5.349c0,.164,0,.325.019.486a4.436,4.436,0,0,0,3.945,4.879,4.29,4.29,0,0,0,.491.023,5.369,5.369,0,0,0,5.388-5.346C54.489,20.8,54.482,20.644,54.468,20.48Z" transform="translate(56.477 17.927)" fill="#1d1d1b"/>
        <path id="Path_49" data-name="Path 49" d="M72.368,14.994h-.232c-.234.465-.468.7-.935.465h-.465c-.468,0-.7.234-.933.7l-6.069,11.2a.7.7,0,0,1-.7.7h0a.7.7,0,0,1-.7-.7l-1.635-9.8-5.367,9.8q-.467.7-.7.7H54.4l-.7-.7-1.866-11.2c0-.234,0-.7-.468-.7h-.7a.484.484,0,0,1-.7-.465h0c-.232-.468,0-.933.234-.933a2.333,2.333,0,0,1,1.635-.468c.933,0,1.866.7,2.1,2.334L55.1,24.1l5.136-9.8a1.163,1.163,0,0,1,.933-.7H61.4c.311,0,.545.234.7.7L63.5,24.33l4.434-8.4a3.267,3.267,0,0,1,2.8-2.334,1.866,1.866,0,0,1,1.632.468C72.6,14.061,72.6,14.526,72.368,14.994Z" transform="translate(66.585 18.046)" fill="#1d1d1b"/>
        <path id="Path_50" data-name="Path 50" d="M72.6,25.712c0,.234,0,.465.234.465h.7c.465-.232.7,0,.933.234h0A.933.933,0,0,1,74,27.578l-1.632.468a1.867,1.867,0,0,1-2.086-1.621,1.742,1.742,0,0,1-.016-.248,6.773,6.773,0,0,1-4.668,2.1,6.537,6.537,0,0,1-6.315-6.75c0-.084.007-.168.014-.255a7.468,7.468,0,0,1,7.231-7.7c.08,0,.159,0,.236,0a6.07,6.07,0,0,1,5.37,3.033v-2.1c.234-.465.465-.7.933-.7h.7a.7.7,0,0,1,.7.7h0Zm-1.167-5.37a4.432,4.432,0,0,0-3.943-4.876A4.9,4.9,0,0,0,67,15.44a5.369,5.369,0,0,0-5.388,5.349c0,.164.007.325.021.486a4.435,4.435,0,0,0,3.943,4.879,4.316,4.316,0,0,0,.491.023,5.6,5.6,0,0,0,5.37-5.826Z" transform="translate(79.19 18.065)" fill="#1d1d1b"/>
        <path id="Path_51" data-name="Path 51" d="M38.4,42.457a1.868,1.868,0,0,1-1.4.468c-1.635,0-2.334-.933-2.1-2.568l.468-10.269-7.236,11.9c-.234.465-.465.7-.933.7h-.234c-.234,0-.468,0-.468-.7L23.232,29.853,20.2,40.356a3.272,3.272,0,0,1-3.036,2.568,1.868,1.868,0,0,1-1.4-.468c-.234-.232-.468-.465-.234-.933L16,41.058c.234-.468.468-.468.935-.234h.7a1.4,1.4,0,0,0,.7-1.4l4.2-14.706.7-.465h.234a.467.467,0,0,1,.468.465h0l3.735,14.472L36.3,24.717l.933-.465h0c.468,0,.468.234.468.465L37,39.423c0,.933,0,1.167.232,1.4h.7c.465-.234.7-.234.933.234v.465C39.1,41.991,38.871,42.225,38.4,42.457Z" transform="translate(20.491 32.362)" fill="#1d1d1b"/>
        <path id="Path_52" data-name="Path 52" d="M38.607,38.089c0,.468,0,.7.468.7h.7c.468-.234.7,0,.7.465h0c.234.468,0,.7-.234.933l-1.866.468c-1.167,0-1.869-.7-1.869-2.1a5.832,5.832,0,0,1-4.668,2.1A4.436,4.436,0,0,1,27.4,34.822l1.167-6.3c0-.465,0-.7-.468-.7h-.465c-.468.234-.7,0-.933-.468h0c-.234-.465,0-.7.465-.933l1.635-.468a1.868,1.868,0,0,1,1.866,2.568l-.933,6.3c-.468,2.334.468,3.735,2.8,3.735a4.2,4.2,0,0,0,3.733-1.869,3.725,3.725,0,0,0,.7-2.1l1.4-7.7c.232-.468.465-.7.933-.7h.7a.7.7,0,0,1,.7.7Z" transform="translate(35.458 34.629)" fill="#1d1d1b"/>
        <path id="Path_53" data-name="Path 53" d="M46.13,26.75v.465c0,.468-.234.7-.7,1.167l-9.1,10.038h4.2a4.891,4.891,0,0,0,3.5-1.869c.234-.465.7-.465,1.167-.232h.234c.468.232.234.465,0,.933a6.064,6.064,0,0,1-4.668,2.8h-7c-.465,0-.7-.465-.465-.933v-.465c0-.234.232-.468.7-1.167l9.1-9.8h-7c-.465,0-.7-.234-.7-.933h.234c0-.468.465-.7.933-.7h9.1A.7.7,0,0,1,46.13,26.75Z" transform="translate(44.276 34.766)" fill="#1d1d1b"/>
        <path id="Path_54" data-name="Path 54" d="M56.38,27.359h-.234c-.234.468-.7.7-.933.468h-.7a.93.93,0,0,0-.7.933L45.409,42.3c-1.4,2.566-2.568,3.267-4.434,3.267L39.107,45.1c-.465,0-.7-.465-.232-.933h0a.932.932,0,0,1,1.188-.573,1.106,1.106,0,0,1,.21.105h.935c.933,0,1.4-.465,2.1-1.632L44.942,39.5,42.376,28.76c-.234-.468-.234-.933-.7-.933h-.465c-.7.234-.935,0-.935-.468h0c-.232-.465,0-.7.234-.933a3.061,3.061,0,0,1,1.869-.468c1.4,0,1.866,1.167,2.1,2.334l2.1,8.637,4.9-8.637c.933-1.4,1.866-2.334,3.267-2.334a1.641,1.641,0,0,1,1.4.468C56.614,26.659,56.614,26.893,56.38,27.359Z" transform="translate(51.531 34.622)" fill="#1d1d1b"/>
        <path id="Path_55" data-name="Path 55" d="M45.915,33.888a8.168,8.168,0,0,1,3.036-6.3,9.583,9.583,0,0,1,5.134-1.635,6.777,6.777,0,0,1,5.37,2.334.706.706,0,0,1,0,.935h-.468c-.465.465-.7.465-1.167,0a4.9,4.9,0,0,0-3.735-1.4,5.506,5.506,0,0,0-5.835,5.6A4.436,4.436,0,0,0,52.185,38.3a4.505,4.505,0,0,0,.732.019,4.667,4.667,0,0,0,3.735-1.4.932.932,0,0,1,1.167,0v.7c.234.465,0,.7-.234,1.167a6.534,6.534,0,0,1-5.134,1.866,6.534,6.534,0,0,1-6.539-6.532C45.913,34.045,45.913,33.968,45.915,33.888Z" transform="translate(61.294 34.63)" fill="#1d1d1b"/>
        <path id="Path_56" data-name="Path 56" d="M64.774,26.616v.465l-.933,1.167-9.1,10.038h4.434a3.976,3.976,0,0,0,3.27-1.869c.465-.465.7-.465,1.167-.232h.234c.465.232.465.465,0,.933A5.6,5.6,0,0,1,59.4,40.153h-7c-.7,0-.7-.465-.7-.933v-.468l.933-1.167,9.1-9.8h-7c-.7,0-.933-.234-.7-.935h0c0-.465.465-.7.933-.7h9.1A.7.7,0,0,1,64.774,26.616Z" transform="translate(69.046 34.899)" fill="#1d1d1b"/>
        <path id="Path_57" data-name="Path 57" d="M71.994,40.192l-1.632.468a1.868,1.868,0,0,1-2-1.724,1.893,1.893,0,0,1,.133-.844l.936-6.069c.465-2.568-.468-3.966-3.036-3.966a4.671,4.671,0,0,0-3.735,1.632,7.025,7.025,0,0,0-.933,2.334l-1.4,7.47a.933.933,0,0,1-.933.933h-.7c-.468,0-.7-.465-.7-.933l2.1-10.971c0-.465,0-.7-.234-.7h-.7c-.465.234-.7,0-.933-.468h0c0-.465,0-.7.468-.933a2.338,2.338,0,0,1,1.632-.468,1.868,1.868,0,0,1,1.927,1.808,1.894,1.894,0,0,1-.058.526,6.305,6.305,0,0,1,4.9-2.334,4.673,4.673,0,0,1,4.668,5.835l-1.167,6.3c0,.468,0,.7.232.7h.7c.465-.234.7,0,.933.465h0C72.462,39.726,72.462,39.96,71.994,40.192Z" transform="translate(77.462 34.627)" fill="#1d1d1b"/>
        <path id="Path_58" data-name="Path 58" d="M78.815,38.087c-.232.468,0,.7.234.7h.7c.465-.234.465,0,.7.465h.234c0,.468,0,.7-.468.933a3.022,3.022,0,0,1-1.866.468c-1.167,0-1.869-.7-1.869-2.1a6.446,6.446,0,0,1-11.207-4.432c0-.08,0-.157,0-.236a7.936,7.936,0,0,1,7.7-7.938,6.072,6.072,0,0,1,5.37,3.036v-2.1c0-.468.465-.7.933-.7h.7c.468,0,.7.234.468.7Zm-1.167-5.136a4.666,4.666,0,0,0-4.427-4.895c-.079,0-.161,0-.241,0a5.6,5.6,0,0,0-5.367,5.826v.009A4.435,4.435,0,0,0,71.8,38.554c.159.007.32.007.479,0a5.371,5.371,0,0,0,5.374-5.365Q77.655,33.07,77.648,32.951Z" transform="translate(87.213 34.632)" fill="#1d1d1b"/>
        <path id="Path_59" data-name="Path 59" d="M11.378,46.7a3.536,3.536,0,0,1-.388-.021c-2.907-.323-5.781-4.357-6.883-6.078C1.591,36.67-.879,30.673.44,26.712A8.635,8.635,0,0,1,8.9,22.186a7.563,7.563,0,0,1,5.271,2.463c.112.133.215.269.313.409a8.034,8.034,0,0,1,6-1.946c.042,0,.084,0,.126,0a7.271,7.271,0,0,1,7.047,5.569l.033.269c0,4.03-4.275,9.661-8.513,13.452C17.345,44.042,13.97,46.7,11.378,46.7ZM8.057,24.48a6.3,6.3,0,0,0-5.494,3.178c-.753,2.329.653,7.22,3.51,11.684,2.112,3.3,4.121,4.9,5.173,5.017,1,.1,3.347-.989,6.375-3.7,4.338-3.882,7.627-8.819,7.732-11.579a4.922,4.922,0,0,0-4.869-3.634l-.119,0c-2.481-.159-4.89,1.095-5.052,2.69L12.992,27.9a2.374,2.374,0,0,0-.606-1.749A5.354,5.354,0,0,0,8.7,24.511C8.485,24.49,8.27,24.48,8.057,24.48Z" transform="translate(-0.073 29.533)" fill="#1d1d1b"/>
        <g id="Group_63" data-name="Group 63" transform="translate(16.94)">
          <path id="Path_60" data-name="Path 60" d="M8.427,53.251A1.11,1.11,0,0,1,7.837,51.2c2.715-1.693,12-9,17.482-31.762a1.109,1.109,0,0,1,2.156.519C21.949,42.892,12.723,50.762,9.014,53.082A1.111,1.111,0,0,1,8.427,53.251Z" transform="translate(-7.316 24.779)" fill="#eb6aa4"/>
          <path id="Path_61" data-name="Path 61" d="M16.1,48.431a1.108,1.108,0,0,1-1.088-1.324A113.375,113.375,0,0,0,14.777,1.8l-.115-.557.433-.6c.419-.454,1.691-1.836,26.156,2.168l.739.122.164.732c.973,4.376,1.9,9.886.772,11.287a1.459,1.459,0,0,1-1.155.566L26.7,13.642a1.108,1.108,0,1,1,.274-2.2l14.264,1.782a40.378,40.378,0,0,0-1.088-8.345C30.474,3.317,20.018,2.017,17.122,2.208a115.609,115.609,0,0,1,.061,45.329A1.105,1.105,0,0,1,16.1,48.431ZM16.938,1.3l.016.075Z" transform="translate(2.518 -0.045)" fill="#eb6aa4"/>
        </g>
      </g>
    </g>
  </g>
</svg>
