<svg xmlns="http://www.w3.org/2000/svg" xmlns:xlink="http://www.w3.org/1999/xlink" width="502.4" height="394.195" viewBox="0 0 502.4 394.195">
  <defs>
    <clipPath id="clip-path">
      <path id="Path_78" data-name="Path 78" d="M0,.39H129.75V96.085H0Z"/>
    </clipPath>
  </defs>
  <g id="Group_73" data-name="Group 73" transform="translate(-837 -1029.805)">
    <g id="React-icon" transform="translate(825.55 1072)">
      <path id="Path_70" data-name="Path 70" d="M324.7,144.361c0-9.871-12.361-19.225-31.312-25.026,4.373-19.316,2.43-34.684-6.135-39.6a13.316,13.316,0,0,0-6.8-1.7V84.8a7.033,7.033,0,0,1,3.462.79c4.13,2.369,5.922,11.389,4.525,22.991-.334,2.855-.881,5.862-1.549,8.929A147.18,147.18,0,0,0,267.6,114.2a148.152,148.152,0,0,0-12.634-15.186c9.9-9.2,19.194-14.244,25.512-14.244V78h0c-8.352,0-19.286,5.953-30.341,16.279C239.084,84.013,228.151,78.121,219.8,78.121v6.773c6.287,0,15.611,5.011,25.512,14.153A143.441,143.441,0,0,0,232.767,114.2a141.823,141.823,0,0,0-19.316,3.341c-.7-3.037-1.215-5.983-1.579-8.808-1.427-11.6.334-20.622,4.434-23.021a6.759,6.759,0,0,1,3.493-.79V78.152h0a13.542,13.542,0,0,0-6.864,1.7c-8.534,4.92-10.448,20.257-6.044,39.513C188,125.2,175.7,134.52,175.7,144.361c0,9.871,12.361,19.225,31.312,25.026-4.373,19.316-2.43,34.684,6.135,39.6a13.351,13.351,0,0,0,6.833,1.7c8.352,0,19.286-5.953,30.341-16.279,11.055,10.265,21.989,16.157,30.341,16.157a13.542,13.542,0,0,0,6.864-1.7c8.534-4.92,10.448-20.257,6.044-39.513C312.4,163.555,324.7,154.2,324.7,144.361ZM285.157,124.1c-1.124,3.918-2.521,7.957-4.1,12-1.245-2.43-2.551-4.859-3.979-7.289-1.4-2.43-2.885-4.8-4.373-7.107C277.018,122.342,281.178,123.131,285.157,124.1Zm-13.91,32.345c-2.369,4.1-4.8,7.988-7.319,11.6-4.525.395-9.111.607-13.728.607-4.586,0-9.172-.213-13.667-.577q-3.781-5.421-7.35-11.541-3.462-5.968-6.317-12.088c1.883-4.07,4.009-8.139,6.287-12.118,2.369-4.1,4.8-7.988,7.319-11.6,4.525-.395,9.111-.607,13.728-.607,4.586,0,9.172.213,13.667.577q3.781,5.421,7.35,11.541,3.462,5.968,6.317,12.088C275.621,148.4,273.525,152.47,271.247,156.448Zm9.81-3.948c1.64,4.07,3.037,8.139,4.191,12.088-3.979.972-8.17,1.792-12.513,2.43,1.488-2.339,2.976-4.738,4.373-7.2C278.506,157.39,279.812,154.93,281.057,152.5Zm-30.8,32.406a125.212,125.212,0,0,1-8.443-9.719c2.733.121,5.528.213,8.352.213,2.855,0,5.679-.061,8.443-.213A118.529,118.529,0,0,1,250.261,184.906Zm-22.6-17.888c-4.313-.638-8.473-1.427-12.452-2.4,1.124-3.918,2.521-7.957,4.1-12,1.245,2.43,2.551,4.859,3.979,7.289S226.177,164.709,227.665,167.017Zm22.444-63.2a125.21,125.21,0,0,1,8.443,9.719c-2.733-.121-5.528-.213-8.352-.213-2.855,0-5.679.061-8.443.213A118.552,118.552,0,0,1,250.109,103.815ZM227.634,121.7c-1.488,2.339-2.976,4.738-4.373,7.2-1.4,2.43-2.7,4.859-3.948,7.289-1.64-4.07-3.037-8.139-4.191-12.088C219.1,123.162,223.291,122.342,227.634,121.7Zm-27.486,38.024c-10.751-4.586-17.706-10.6-17.706-15.368s6.955-10.812,17.706-15.368c2.612-1.124,5.467-2.126,8.413-3.067a145.876,145.876,0,0,0,6.833,18.5,143.811,143.811,0,0,0-6.742,18.4C205.646,161.885,202.791,160.852,200.149,159.728Zm16.34,43.4c-4.13-2.369-5.922-11.389-4.525-22.991.334-2.855.881-5.862,1.549-8.929a147.184,147.184,0,0,0,19.286,3.31A148.142,148.142,0,0,0,245.432,189.7c-9.9,9.2-19.194,14.244-25.512,14.244A7.248,7.248,0,0,1,216.488,203.128Zm72.04-23.143c1.427,11.6-.334,20.622-4.434,23.021a6.759,6.759,0,0,1-3.493.79c-6.287,0-15.611-5.011-25.512-14.153a143.442,143.442,0,0,0,12.543-15.155,141.82,141.82,0,0,0,19.316-3.341A85.027,85.027,0,0,1,288.528,179.986Zm11.693-20.257c-2.612,1.124-5.467,2.126-8.413,3.067a145.871,145.871,0,0,0-6.833-18.5,143.816,143.816,0,0,0,6.742-18.4c3.007.942,5.862,1.974,8.534,3.1,10.751,4.586,17.706,10.6,17.706,15.368C317.927,149.129,310.972,155.173,300.221,159.728Z" fill="#61dafb"/>
      <path id="Path_71" data-name="Path 71" d="M320.8,78.4Z" transform="translate(-101.032 -0.279)" fill="#61dafb"/>
      <circle id="Ellipse_6" data-name="Ellipse 6" cx="13.88" cy="13.88" r="13.88" transform="translate(236.29 130.481)" fill="#61dafb"/>
      <path id="Path_72" data-name="Path 72" d="M520.5,78.1Z" transform="translate(-240.081 -0.07)" fill="#61dafb"/>
    </g>
    <g id="Unofficial_JavaScript_logo_2" transform="translate(909 1322)">
      <rect id="Rectangle_190" data-name="Rectangle 190" width="102" height="102" fill="#f7df1e"/>
      <path id="Path_73" data-name="Path 73" d="M207.541,319.291c2.055,3.355,4.728,5.82,9.455,5.82,3.972,0,6.509-1.985,6.509-4.728,0-3.287-2.607-4.451-6.978-6.363l-2.4-1.028c-6.917-2.947-11.511-6.638-11.511-14.442,0-7.189,5.477-12.661,14.037-12.661,6.094,0,10.475,2.121,13.632,7.674l-7.464,4.792c-1.643-2.947-3.416-4.108-6.169-4.108-2.807,0-4.587,1.781-4.587,4.108,0,2.875,1.781,4.04,5.893,5.82l2.4,1.026c8.144,3.492,12.742,7.053,12.742,15.057,0,8.63-6.779,13.357-15.883,13.357-8.9,0-14.652-4.242-17.466-9.8Zm-33.859.831c1.506,2.671,2.875,4.93,6.169,4.93,3.149,0,5.136-1.232,5.136-6.023V286.437h9.585v32.721c0,9.925-5.819,14.442-14.312,14.442-7.674,0-12.119-3.972-14.379-8.755Z" transform="translate(-139.023 -239.603)"/>
    </g>
    <g id="csharp_original_logo_icon_146578" transform="translate(1221.5 1218.691)">
      <path id="Path_74" data-name="Path 74" d="M115.4,30.7,67.1,2.9A5.93,5.93,0,0,0,64,2.2a7.094,7.094,0,0,0-3.1.7l-48,27.9A6.871,6.871,0,0,0,10,36.2V91.9a5.875,5.875,0,0,0,1,3.5l106.8-62a7.083,7.083,0,0,0-2.4-2.7Z" fill="#9b4f96"/>
      <path id="Path_75" data-name="Path 75" d="M10.7,95.3a5.744,5.744,0,0,0,1.9,1.9l48.2,27.9a5.93,5.93,0,0,0,3.1.7,7.094,7.094,0,0,0,3.1-.7l48-27.9a6.871,6.871,0,0,0,2.9-5.4V36.1a5.678,5.678,0,0,0-.6-2.8L10.7,95.3Z" fill="#68217a"/>
      <path id="Path_76" data-name="Path 76" d="M85.3,76.1a24.55,24.55,0,1,1,0-24.1l13-7.5a39.487,39.487,0,1,0-.1,39.2L85.3,76.1ZM97,66.2l.9-4.3H93.7V57.2h5.1L100,51h4.9l-1.2,6.1h3.8l1.2-6.1h4.8l-1.2,6.1h2.4v4.7h-3.3l-.9,4.3h4.2v4.7h-5.1l-1.2,6h-4.9l1.2-6h-3.8l-1.2,6H94.9l1.2-6H93.7V66.1H97Zm4.8,0h3.8l.9-4.3h-3.8Z" fill="#fff"/>
    </g>
    <g id="Creative_Cloud" transform="translate(1150.25 1029.415)" clip-path="url(#clip-path)">
      <path id="Path_77" data-name="Path 77" d="M129.75,46.1v4.272c-.041.232-.092.459-.119.69-.221,1.858-.364,3.728-.67,5.572A45.59,45.59,0,0,1,122.6,73.352,47.538,47.538,0,0,1,102.9,91.211a46.1,46.1,0,0,1-15.2,4.486c-1.175.136-2.348.257-3.523.387H38.589a5.7,5.7,0,0,0-.69-.125,38.871,38.871,0,0,1-13.233-3.181A40.369,40.369,0,0,1,4.168,73.3a38.321,38.321,0,0,1-3.786-12.6Q.188,59.094,0,57.5V53.352a5.538,5.538,0,0,0,.125-.69A38.183,38.183,0,0,1,2.618,41.1,40.349,40.349,0,0,1,22.827,18.88a39.592,39.592,0,0,1,15.825-4.091,43.96,43.96,0,0,1,8.129.373,1.026,1.026,0,0,0,.767-.25A48.065,48.065,0,0,1,60.834,5.284,46.493,46.493,0,0,1,76.111.78C77.372.636,78.635.517,79.9.387h3.886c.254.04.509.084.764.114,1.925.224,3.862.365,5.769.685a45.714,45.714,0,0,1,16.615,6.307,47.54,47.54,0,0,1,17.942,19.742,45.991,45.991,0,0,1,4.491,15.213c.139,1.218.257,2.437.387,3.653M57.2,18.461c.078.1.1.151.13.167a51.914,51.914,0,0,1,7.624,4.61.8.8,0,0,0,.711-.051A29.945,29.945,0,0,1,105.5,30.042a28.322,28.322,0,0,1,5.867,23.078,29.586,29.586,0,0,1-7.192,15.209C97.04,76.2,88.107,79.45,77.592,78.073A28.064,28.064,0,0,1,60.9,69.758c-5.936-6-11.911-11.953-17.865-17.933a4.817,4.817,0,0,0-2.819-1.577,4.479,4.479,0,0,0-4.669,2.545,4.132,4.132,0,0,0,1,5.046c6.637,6.515,13.215,13.09,19.845,19.612a32.043,32.043,0,0,0,3.64,3.1,34.835,34.835,0,0,0,16.216,6.244,39.119,39.119,0,0,0,13.815-.546,38.962,38.962,0,0,0,30.148-32.78,38.241,38.241,0,0,0-.355-12.547A37.243,37.243,0,0,0,111.1,22.962c-8.743-9.817-19.742-14.2-32.832-13.222a36.476,36.476,0,0,0-14.28,4.2A37.681,37.681,0,0,0,57.2,18.461M54,86.995q-.27-.25-.538-.5c-2.714-2.562-5.442-5.108-8.124-7.7a2.2,2.2,0,0,0-1.731-.729,32.9,32.9,0,0,1-8.11-.526A22.694,22.694,0,0,1,44.5,33.063a22,22,0,0,1,12.3,6.365c4.158,4.293,8.441,8.463,12.644,12.712a3.777,3.777,0,0,0,3.381,1.22,4.249,4.249,0,0,0,3.7-2.74,4.046,4.046,0,0,0-.939-4.486c-4.411-4.469-8.718-9.05-13.308-13.33-8.9-8.3-19.4-10.772-31.01-7.241a31.475,31.475,0,0,0,9.58,61.467q6.214.006,12.428,0c.205,0,.41-.018.726-.034" transform="translate(0 0)" fill="#da1f26"/>
    </g>
    <path id="Path_81" data-name="Path 81" d="M55.5,0A55.5,55.5,0,1,0,111,55.5,55.663,55.663,0,0,0,55.5,0ZM24.579,86.421A43.032,43.032,0,0,1,11.893,56.293L55.1,99.107C44,98.711,32.9,94.746,24.579,86.421Zm40.436,11.5L13.082,45.986a43.579,43.579,0,0,1,77.7-16.254l-5.946,5.154A36.6,36.6,0,0,0,55.5,19.821,36.056,36.056,0,0,0,21.8,43.607L67.393,89.2A35.94,35.94,0,0,0,90.386,63.429H71.357V55.5h27.75A43.731,43.731,0,0,1,65.014,97.918Z" transform="translate(837 1058)" fill="#639"/>
  </g>
</svg>
