<svg xmlns="http://www.w3.org/2000/svg" width="257.182" height="42.755" viewBox="0 0 257.182 42.755">
  <g id="Group_67" data-name="Group 67" transform="translate(-364 -884)">
    <g id="Group_48" data-name="Group 48" transform="translate(364 884)">
      <g id="Group_2" data-name="Group 2" transform="translate(18.21 0)">
        <g id="Group_1" data-name="Group 1" transform="matrix(-0.54, 0.842, -0.842, -0.54, 16.412, 5.492)">
          <path id="Path_1" data-name="Path 1" d="M0,10.166H11.181L14.544.831,4.656,0Z" transform="translate(0 0)" fill="#3da4dc"/>
        </g>
      </g>
      <g id="Group_4" data-name="Group 4" transform="translate(0 13.089)">
        <g id="Group_3" data-name="Group 3" transform="translate(0 0)">
          <path id="Path_2" data-name="Path 2" d="M-151.849-155.1l-24.08,22.245,18.349-29.666Z" transform="translate(175.929 162.519)"/>
        </g>
      </g>
      <g id="Group_6" data-name="Group 6" transform="translate(28.053 13.089)">
        <g id="Group_5" data-name="Group 5" transform="translate(0 0)">
          <path id="Path_3" data-name="Path 3" d="M0-155.1l24.08,22.245L5.732-162.519Z" transform="translate(0 162.519)"/>
        </g>
      </g>
      <g id="Group_8" data-name="Group 8" transform="translate(8.472 27.224)">
        <g id="Group_7" data-name="Group 7" transform="translate(0 0)">
          <path id="Path_4" data-name="Path 4" d="M-221.9,14.428h-35.189L-239.5,0Z" transform="translate(257.092)"/>
        </g>
      </g>
    </g>
    <g id="Group_39" data-name="Group 39" transform="translate(429.323 892.637)">
      <g id="Group_10" data-name="Group 10" transform="translate(50.133 4.074)">
        <g id="Group_9" data-name="Group 9" transform="translate(0 0)">
          <path id="Path_5" data-name="Path 5" d="M-11.406-17.119c3.975,0,6.309-2.151,6.309-5.433,0-3.318-2.371-5.507-6.309-5.507h-3.976v10.94Zm-7.185-13.639h7.258c5.979,0,9.444,3.684,9.444,8.169,0,4.522-3.465,8.168-9.444,8.168h-4.049v9.189h-3.21Z" transform="translate(18.592 30.758)"/>
        </g>
      </g>
      <g id="Group_12" data-name="Group 12" transform="translate(172.313 4.075)">
        <g id="Group_11" data-name="Group 11" transform="translate(0 0)">
          <path id="Path_6" data-name="Path 6" d="M-12.968-55.841h-8.169v-2.845H-1.591v2.845H-9.759V-33.16h-3.209Z" transform="translate(21.137 58.686)"/>
        </g>
      </g>
      <g id="Group_14" data-name="Group 14" transform="translate(83.417 4.075)">
        <g id="Group_13" data-name="Group 13" transform="translate(0 0)">
          <path id="Path_7" data-name="Path 7" d="M-5.094,15.324v-.007H-5.1V-4.51h.006v0H7.852V-7.358H-8.3V18.168H8.217V15.324Z" transform="translate(8.303 7.358)"/>
        </g>
      </g>
      <g id="Group_16" data-name="Group 16" transform="translate(89.06 15.927)">
        <g id="Group_15" data-name="Group 15" transform="translate(9.054 2.844) rotate(180)">
          <rect id="Rectangle_7" data-name="Rectangle 7" width="9.054" height="2.844" transform="translate(0)"/>
        </g>
      </g>
      <g id="Group_18" data-name="Group 18" transform="translate(128.422 4.075)">
        <g id="Group_17" data-name="Group 17" transform="translate(0 0)">
          <path id="Path_8" data-name="Path 8" d="M-5.094,15.324v-.007H-5.1V-4.51h.006v0H7.852V-7.358H-8.3V18.168H8.217V15.324Z" transform="translate(8.303 7.358)"/>
        </g>
      </g>
      <g id="Group_20" data-name="Group 20" transform="translate(134.065 15.927)">
        <g id="Group_19" data-name="Group 19" transform="translate(9.054 2.844) rotate(180)">
          <rect id="Rectangle_8" data-name="Rectangle 8" width="9.054" height="2.844" transform="translate(0)"/>
        </g>
      </g>
      <g id="Group_22" data-name="Group 22" transform="translate(148.689 3.346)">
        <g id="Group_21" data-name="Group 21" transform="translate(0 0)">
          <path id="Path_9" data-name="Path 9" d="M-5.094-41v-.011l.685.777L11.832-22.052H11.9V-48.309H8.69v18.343L-7.973-49.037H-8.3V-44.6Z" transform="translate(8.303 49.037)"/>
        </g>
      </g>
      <g id="Group_24" data-name="Group 24" transform="translate(148.689 10.917)">
        <g id="Group_23" data-name="Group 23" transform="translate(3.209 0) rotate(90)">
          <path id="Path_10" data-name="Path 10" d="M0,3.209H18.684V0H5.553Z" transform="translate(0 0)"/>
        </g>
      </g>
      <g id="Group_26" data-name="Group 26" transform="translate(102.423 2.92)">
        <g id="Group_25" data-name="Group 25" transform="matrix(-0.371, -0.929, 0.929, -0.371, 8.59, 22.69)">
          <path id="Path_11" data-name="Path 11" d="M4.4,3.117H21.941L23.185,0,0,.545Z" transform="translate(0 0)"/>
        </g>
      </g>
      <g id="Group_28" data-name="Group 28" transform="translate(112.43 4.075)">
        <g id="Group_27" data-name="Group 27" transform="translate(0 0)">
          <path id="Path_12" data-name="Path 12" d="M-14.8-67.936l-7.986,20.02-.031-.077-1.3,3.523,1.189,2.789h.291l11.2-26.256Z" transform="translate(24.118 67.936)"/>
        </g>
      </g>
      <g id="Group_30" data-name="Group 30" transform="translate(0 4.064)">
        <g id="Group_29" data-name="Group 29" transform="translate(0 0)">
          <path id="Path_13" data-name="Path 13" d="M-14.283-66.077h-9v2.845h8.173v22.693h3.21V-60.567Z" transform="translate(23.281 66.077)"/>
        </g>
      </g>
      <g id="Group_32" data-name="Group 32" transform="translate(11.646 2.124)">
        <g id="Group_31" data-name="Group 31" transform="translate(7.4 0) rotate(75.309)">
          <path id="Path_14" data-name="Path 14" d="M0,7.65H2.941L4.757.722,2.005,0Z" transform="translate(0 0)"/>
        </g>
      </g>
      <g id="Group_34" data-name="Group 34" transform="translate(23.552 19.979)">
        <g id="Group_33" data-name="Group 33" transform="translate(0 0)">
          <path id="Path_15" data-name="Path 15" d="M-25.427-32.453l-6.545,8.669-6.547-8.669h-2.926l9.472,12.543L-22.5-32.453Z" transform="translate(41.444 32.453)"/>
        </g>
      </g>
      <g id="Group_36" data-name="Group 36" transform="translate(18.106 0)">
        <g id="Group_35" data-name="Group 35" transform="matrix(-0.534, -0.845, 0.845, -0.534, 5.256, 17.744)">
          <path id="Path_16" data-name="Path 16" d="M7.109,17.648H9.838L1.45,0,0,2.295Z" transform="translate(0 0)"/>
        </g>
      </g>
      <g id="Group_38" data-name="Group 38" transform="translate(30.229 4.008)">
        <g id="Group_37" data-name="Group 37" transform="translate(0 0)">
          <path id="Path_17" data-name="Path 17" d="M-21,12.511-28.851,0l-5.384,7.451h2.8l2.391-3.267,5.28,8.326Z" transform="translate(34.235)"/>
        </g>
      </g>
    </g>
  </g>
</svg>
