<svg xmlns="http://www.w3.org/2000/svg" viewBox="0 0 554.15 119.72"><defs><style>.cls-1{fill:#ff3025;}.cls-2{fill:#f1f1f1;}</style></defs><g id="Layer_2" data-name="Layer 2"><g id="Layer_1-2" data-name="Layer 1"><rect x="22.3" y="13.79" width="15.82" height="14.86"/><rect x="22.3" y="42.97" width="15.82" height="70.81"/><rect id="Rectangle_76" data-name="Rectangle 76" class="cls-1" x="10.09" y="14.31" width="7.16" height="14.32"/><rect id="Rectangle_77" data-name="Rectangle 77" class="cls-2" y="14.3" width="3.58" height="14.32"/><g id="Group_56" data-name="Group 56"><g id="Group_6" data-name="Group 6"><path id="Path_21" data-name="Path 21" d="M72.83,47.84V54a22.46,22.46,0,0,1,18-7.83,23.4,23.4,0,0,1,19.45,9,31.86,31.86,0,0,1,4.07,18.35v40.45H99.18V77c0-6.9-.47-10-2-12.54a11.46,11.46,0,0,0-10.2-4.7c-10.34,0-14.11,6-14.11,22.26v31.83H57.63v-66Z"/><path id="Path_22" data-name="Path 22" d="M152.16,113.85H137V61.23h-6.42V46.72H137V22.16h15.21V46.72h11.92V61.23H152.16Z"/><path id="Path_23" data-name="Path 23" d="M223,89.39c-6.11,9.88-10.19,12.86-17.87,12.86-9.72,0-16.3-6.9-17.09-17.72h47.21V80.92a41.53,41.53,0,0,0-5.33-21.79,30.94,30.94,0,0,0-26-13c-19.12,0-31.82,14-31.82,35s13,34.81,32.59,34.81a33.68,33.68,0,0,0,22.26-8,37,37,0,0,0,8.94-11.29Zm-18.8-29.47a15,15,0,0,1,15.36,12.23H189A15.39,15.39,0,0,1,204.22,59.92Z"/><path id="Path_24" data-name="Path 24" d="M267.08,47.84v6c5.65-6,9.25-7.84,15.21-7.84A21.24,21.24,0,0,1,295,50l-7.06,14a12.69,12.69,0,0,0-8.47-3.3c-8.46,0-12.38,6-12.38,19v34.18H251.87v-66Z"/><path id="Path_25" data-name="Path 25" d="M320.7,47.84V54a22.46,22.46,0,0,1,18-7.83,23.37,23.37,0,0,1,19.44,9,31.79,31.79,0,0,1,4.08,18.35v40.45H347V77c0-6.9-.47-10-2-12.54a11.45,11.45,0,0,0-10.18-4.73c-10.35,0-14.11,6-14.11,22.27v31.82H305.49v-66Z"/><path id="Path_26" data-name="Path 26" d="M429.35,89.39c-6.12,9.88-10.19,12.86-17.88,12.86-9.72,0-16.3-6.9-17.09-17.72h47.19V80.92a41.43,41.43,0,0,0-5.33-21.79,30.93,30.93,0,0,0-26-13c-19.13,0-31.83,14-31.83,35s13,34.81,32.6,34.81a33.7,33.7,0,0,0,22.26-8A37.06,37.06,0,0,0,442.2,96.6ZM410.54,59.92A15,15,0,0,1,425.9,72.15H395.33A15.4,15.4,0,0,1,410.54,59.92Z"/></g><path id="Subtraction_1" data-name="Subtraction 1" d="M497.44,119.72H484.92c-9.53,0-16.78-2.23-21.55-6.62s-7.18-11.7-7.18-21.74V32.61H428.75V18.44H456.2V0h17.19V18.44h27V32.62h-27V91.37a14.65,14.65,0,0,0,3.22,10.68,15.94,15.94,0,0,0,11.16,3.12h9.67v14.55Z"/><path id="Subtraction_2" data-name="Subtraction 2" class="cls-1" d="M551.17,119.72H538.65c-9.53,0-16.78-2.23-21.55-6.62s-7.18-11.7-7.18-21.74V32.61H482.48V18.44h27.44V0h17.2V18.44h27V32.62h-27V91.37a14.6,14.6,0,0,0,3.22,10.68,15.94,15.94,0,0,0,11.16,3.12h9.67v14.55Z"/></g></g></g></svg>