<svg xmlns="http://www.w3.org/2000/svg" viewBox="0 0 622 456.07"><g id="Layer_2" data-name="Layer 2"><g id="Layer_1-2" data-name="Layer 1"><polygon points="358 428.77 505 453.77 523 360.77 351 2.77 320 19.77 390 172.77 310 213.77 213 15.77 179 35.77 358 428.77" style="fill:#0afcd3;stroke:#060103;stroke-miterlimit:10;stroke-width:4px"/><polygon points="456 216.77 524 358 539.97 287.38 456 216.77" style="fill:#0afcd3;stroke:#060103;stroke-miterlimit:10;stroke-width:4px"/><polygon points="508 257.77 541 283.77 580 228.77 616 201.77 547.63 201.77 508 257.77" style="fill:#0afcd3;stroke:#060103;stroke-miterlimit:10;stroke-width:4px"/><line x1="347.49" y1="293.27" x2="307.5" y2="208.42" style="fill:none;stroke:#060103;stroke-miterlimit:10;stroke-width:4px"/><line x1="395" y1="268.77" x2="357" y2="189.77" style="fill:none;stroke:#060103;stroke-miterlimit:10;stroke-width:4px"/><line x1="430" y1="254.77" x2="390" y2="172.77" style="fill:none;stroke:#060103;stroke-miterlimit:10;stroke-width:4px"/><line x1="405.37" y1="204.28" x2="323.56" y2="242.5" style="fill:none;stroke:#060103;stroke-miterlimit:10;stroke-width:4px"/><polygon points="264 428.77 117 453.77 99 360.77 271 2.77 302 19.77 232 172.77 312 213.77 409 15.77 443 35.77 264 428.77" style="fill:#0afcd3;stroke:#060103;stroke-miterlimit:10;stroke-width:4px"/><polygon points="166 216.77 98 358 82.03 287.38 166 216.77" style="fill:#0afcd3;stroke:#060103;stroke-miterlimit:10;stroke-width:4px"/><polygon points="114 257.77 81 283.77 42 228.77 6 201.77 74.37 201.77 114 257.77" style="fill:#0afcd3;stroke:#060103;stroke-miterlimit:10;stroke-width:4px"/><line x1="274.51" y1="293.27" x2="314.5" y2="208.42" style="fill:none;stroke:#060103;stroke-miterlimit:10;stroke-width:4px"/><line x1="227" y1="268.77" x2="265" y2="189.77" style="fill:none;stroke:#060103;stroke-miterlimit:10;stroke-width:4px"/><line x1="192" y1="254.77" x2="232" y2="172.77" style="fill:none;stroke:#060103;stroke-miterlimit:10;stroke-width:4px"/><line x1="216.63" y1="204.28" x2="298.44" y2="242.5" style="fill:none;stroke:#060103;stroke-miterlimit:10;stroke-width:4px"/><path d="M244.3,309.15l-61.9,19.64,59.95,24.81-1,22.87-85.64-36.94,1-23.78,88.54-29.29Z"/><path d="M371.61,285.52l86.4,35.1-.53,23.8-87.9,31.18.52-22.89,61.46-20.78L371.1,308.22Z"/></g></g></svg>